<svg width="50" height="50" viewBox="0 0 50 50" fill="none" xmlns="http://www.w3.org/2000/svg">
<path d="M42.1875 24.479H41.8958C40.6979 19.1248 35.9167 15.104 30.2083 15.104H26.5625V13.7707C28.375 13.1248 29.6875 11.4061 29.6875 9.37484C29.6875 6.79151 27.5833 4.68734 25 4.68734C22.4167 4.68734 20.3125 6.79151 20.3125 9.37484C20.3125 11.4061 21.625 13.1248 23.4375 13.7707V15.104H19.7917C14.0833 15.104 9.30208 19.1248 8.10417 24.479H7.8125C6.09375 24.479 4.6875 25.8853 4.6875 27.604V30.729C4.6875 32.4478 6.09375 33.854 7.8125 33.854H8.38542C9.61458 37.6873 12.7187 40.6665 16.6146 41.7498C16.3229 42.3644 16.1458 43.0311 16.1458 43.7498C16.1458 44.6144 16.8438 45.3123 17.7083 45.3123H32.2917C33.1562 45.3123 33.8542 44.6144 33.8542 43.7498C33.8542 43.0311 33.6771 42.354 33.3854 41.7498C37.2812 40.6769 40.3854 37.6873 41.6146 33.854H42.1875C43.9062 33.854 45.3125 32.4478 45.3125 30.729V27.604C45.3125 25.8853 43.9062 24.479 42.1875 24.479ZM25 7.81234C25.8646 7.81234 26.5625 8.51026 26.5625 9.37484C26.5625 10.2394 25.8646 10.9373 25 10.9373C24.1354 10.9373 23.4375 10.2394 23.4375 9.37484C23.4375 8.51026 24.1354 7.81234 25 7.81234ZM30.2083 39.0623H19.7917C14.9062 39.0623 10.9375 35.0936 10.9375 30.2082V27.0832C10.9375 22.1978 14.9062 18.229 19.7917 18.229H30.2083C35.0937 18.229 39.0625 22.1978 39.0625 27.0832V30.2082C39.0625 35.0936 35.0937 39.0623 30.2083 39.0623Z" fill="white"/>
<path d="M19.2708 22.3957C17.5521 22.3957 16.1458 23.8019 16.1458 25.5207V28.6457C16.1458 30.3644 17.5521 31.7707 19.2708 31.7707C20.9896 31.7707 22.3958 30.3644 22.3958 28.6457V25.5207C22.3958 23.8019 20.9896 22.3957 19.2708 22.3957Z" fill="white"/>
<path d="M30.7292 22.3957C29.0104 22.3957 27.6042 23.8019 27.6042 25.5207V28.6457C27.6042 30.3644 29.0104 31.7707 30.7292 31.7707C32.4479 31.7707 33.8542 30.3644 33.8542 28.6457V25.5207C33.8542 23.8019 32.4479 22.3957 30.7292 22.3957Z" fill="white"/>
<path d="M14.0937 7.72901L17.2188 8.77068C17.3854 8.82276 17.5521 8.85401 17.7083 8.85401C18.3646 8.85401 18.9688 8.43734 19.1875 7.78109C19.4583 6.95818 19.0208 6.07276 18.1979 5.80193L15.0729 4.76026C14.2604 4.48943 13.375 4.92693 13.0937 5.74984C12.8125 6.57276 13.2604 7.45818 14.0833 7.72901H14.0937Z" fill="white"/>
<path d="M14.5833 14.0623C14.75 14.0623 14.9167 14.0415 15.0729 13.979L18.1979 12.9373C19.0208 12.6665 19.4583 11.7811 19.1875 10.9582C18.9167 10.1353 18.0312 9.69776 17.2083 9.96859L14.0833 11.0103C13.2604 11.2811 12.8229 12.1665 13.0937 12.9894C13.3125 13.6457 13.9167 14.0623 14.5729 14.0623H14.5833Z" fill="white"/>
<path d="M32.2917 8.85401C32.4583 8.85401 32.625 8.83318 32.7812 8.77068L35.9062 7.72901C36.7292 7.45818 37.1667 6.57276 36.8958 5.74984C36.625 4.92693 35.7396 4.48943 34.9167 4.76026L31.7917 5.80193C30.9688 6.07276 30.5312 6.95818 30.8021 7.78109C31.0208 8.43734 31.625 8.85401 32.2812 8.85401H32.2917Z" fill="white"/>
<path d="M31.8021 12.9373L34.9271 13.979C35.0937 14.0311 35.2604 14.0623 35.4167 14.0623C36.0729 14.0623 36.6771 13.6457 36.8958 12.9894C37.1667 12.1665 36.7292 11.2811 35.9062 11.0103L32.7812 9.96859C31.9687 9.69776 31.0729 10.1353 30.8021 10.9582C30.5312 11.7811 30.9688 12.6665 31.7917 12.9373H31.8021Z" fill="white"/>
</svg>
